<svg fill="none" xmlns="http://www.w3.org/2000/svg">
  <symbol viewBox="0 0 18 18" id="close">
    <path fill-rule="evenodd" clip-rule="evenodd" d="M16.7782 16.7781C16.0619 17.4944 14.9017 17.4944 14.1854 16.7781L9 11.5927L3.81455 16.7781C3.09831 17.4944 1.93806 17.4944 1.22182 16.7781C0.505584 16.0619 0.505586 14.9016 1.22183 14.1854L6.40728 8.99995L1.22183 3.8145C0.505586 3.09826 0.505585 1.93802 1.22183 1.22178C1.93807 0.505538 3.09831 0.505538 3.81455 1.22178L9 6.40723L14.1854 1.22178C14.901 0.506186 16.0619 0.505537 16.7782 1.22178C17.4944 1.93802 17.4938 3.09891 16.7782 3.8145L11.5927 8.99995L16.7782 14.1854C17.4944 14.9016 17.4944 16.0619 16.7782 16.7781Z" />
  </symbol>
  <symbol viewBox="0 0 16 16" id="home">
    <path d="M9.46647 10.6087H6.53296V14.6666H9.46647V10.6087Z" />
    <path d="M15.2279 7.19775L11.8132 4.3862V2.20304C11.8132 2.04304 11.6821 1.91319 11.5198 1.91319C11.3576 1.91319 11.2265 2.04304 11.2265 2.20304V3.90302L8.18757 1.40073C8.07874 1.31088 7.92093 1.31088 7.8121 1.40073L0.772078 7.19775C0.647705 7.30036 0.630985 7.48297 0.734532 7.60586C0.838079 7.72876 1.02288 7.74528 1.14755 7.64296L2.42648 6.58994V14.3768C2.42648 14.5371 2.5579 14.6666 2.71982 14.6666H5.94649V10.3189C5.94649 10.1586 6.07791 10.029 6.23983 10.029H9.75984C9.92205 10.029 10.0532 10.1586 10.0532 10.3189V14.6666H13.2799C13.4421 14.6666 13.5732 14.5371 13.5732 14.3768V6.58994L14.8518 7.64296C14.907 7.68818 14.9733 7.71021 15.0396 7.71021C15.1238 7.71021 15.2071 7.67456 15.2654 7.60586C15.369 7.48297 15.352 7.30007 15.2279 7.19775Z"/>
  </symbol>
  <symbol viewBox="0 0 16 16" id="statistic">
    <path fill-rule="evenodd" clip-rule="evenodd" d="M15.3334 13.5V15.3333H0.666687V13.5H15.3334ZM5.25002 8.91666C5.25002 8.4102 4.83981 7.99999 4.33335 7.99999H2.50002C1.99356 7.99999 1.58335 8.4102 1.58335 8.91666V12.5833H5.25002V8.91666ZM9.83335 5.24999C9.83335 4.74353 9.42315 4.33332 8.91669 4.33332H7.08335C6.5769 4.33332 6.16669 4.74353 6.16669 5.24999V12.5833H9.83335V5.24999ZM14.4167 1.58332C14.4167 1.07686 14.0065 0.666656 13.5 0.666656H11.6667C11.1602 0.666656 10.75 1.07686 10.75 1.58332V12.5833H14.4167V1.58332Z"/>
  </symbol>
  <symbol viewBox="0 0 16 16" id="company">
    <path d="M13.6687 1.424C13.552 1.356 10.7887 -0.215344 7.69 1.41C5.78266 2.41134 4.03866 1.88066 3.33334 1.582V0.666656C3.33334 0.298656 3.33331 0 2.66666 0C2 0 2 0.298656 2 0.666656V2V8.67934V15.3333C2 15.702 1.99977 16 2.66666 16C3.33355 16 3.33331 15.702 3.33331 15.3333V9.67666C3.85931 9.846 4.55731 10.0033 5.37066 10.0027C6.252 10.0027 7.26266 9.81931 8.31 9.27C10.7347 7.99534 12.9033 9.20066 13 9.25666C13.2047 9.37466 13.4587 9.376 13.6653 9.25731C13.8727 9.13797 14 8.91797 14 8.67931V2C14 1.76334 13.874 1.54334 13.6687 1.424Z" />
  </symbol>
  <symbol viewBox="0 0 16 16" id="ads">
    <path d="M14.9312 0.0506834L4.8 3.99284V10.0953L5.3984 10.328L4.4968 12.293C4.39411 12.5164 4.3367 12.7612 4.32847 13.0109C4.32024 13.2606 4.36137 13.5093 4.44908 13.7402C4.53679 13.971 4.66903 14.1786 4.83682 14.3489C5.00462 14.5191 5.20405 14.6481 5.4216 14.727L8.6888 15.9135C9.05428 16.0433 9.45031 16.0266 9.80545 15.8662C10.1606 15.7059 10.4515 15.4126 10.6256 15.0391L11.668 12.7672L14.9312 14.0374C15.0519 14.0843 15.1811 14.099 15.3081 14.0801C15.435 14.0613 15.5559 14.0095 15.6607 13.9291C15.7654 13.8487 15.8509 13.742 15.91 13.6181C15.969 13.4942 15.9999 13.3567 16 13.2171V0.871023C15.9999 0.731411 15.969 0.59387 15.91 0.469971C15.8509 0.346072 15.7654 0.23944 15.6607 0.159046C15.5559 0.0786513 15.435 0.0268462 15.3081 0.00798895C15.1811 -0.0108683 15.0519 0.00377377 14.9312 0.0506834ZM9.1944 14.2597L5.928 13.0732L6.916 10.9191L10.1496 12.1779L9.1944 14.2597ZM1.6 10.0953H3.2V3.99284H1.6C0.7176 3.99284 0 4.77483 0 5.73639V8.35171C0 9.31328 0.7176 10.0953 1.6 10.0953Z" />
  </symbol>
  <symbol viewBox="0 0 16 16" id="balance">
    <path fill-rule="evenodd" clip-rule="evenodd" d="M13.5 3.41666V1.58333C13.5 1.07687 13.0898 0.666664 12.5834 0.666664H11.6662H3.41623C1.89731 0.666664 0.666687 1.89866 0.666687 3.41666V14.4167C0.666687 14.9231 1.07644 15.3333 1.5829 15.3333H14.4167C14.9231 15.3333 15.3334 14.9231 15.3334 14.4167V3.41666H13.5ZM3.41623 2.5H11.6667V3.41666H2.49956C2.49956 2.91021 2.90977 2.5 3.41623 2.5ZM12.5834 9.83333C12.0769 9.83333 11.6662 9.42312 11.6662 8.91666C11.6662 8.41021 12.0769 8 12.5834 8C13.0898 8 13.5 8.41021 13.5 8.91666C13.5 9.42312 13.0898 9.83333 12.5834 9.83333Z" />
  </symbol>
  <symbol viewBox="0 0 16 16" id="faq">
    <path fill-rule="evenodd" clip-rule="evenodd" d="M13.185 0.666666H2.81491C1.99245 0.666666 1.33331 1.2955 1.33331 2.06367V11.8414C1.33331 12.6096 1.99245 13.2378 2.81494 13.2378H5.77755L7.99998 15.3333L10.2218 13.2378H13.185C13.9997 13.2378 14.6666 12.6096 14.6666 11.8414V2.06367C14.6666 1.2955 13.9997 0.666666 13.185 0.666666ZM8.74078 11.8414H7.25915V10.4444H8.74078V11.8414ZM10.2736 6.42882L9.60732 7.07109C9.07392 7.58075 8.74078 7.99999 8.74078 9.04741H7.25915V8.69847C7.25915 7.9303 7.59229 7.23182 8.12569 6.72215L9.04409 5.84216C9.3176 5.59038 9.48158 5.24206 9.48158 4.85765C9.48158 4.08948 8.814 3.46065 7.99995 3.46065C7.18525 3.46065 6.51832 4.08948 6.51832 4.85765H5.03734C5.03734 3.31461 6.36341 2.06426 7.99995 2.06426C9.63649 2.06426 10.9626 3.31458 10.9626 4.85765C10.9626 5.47183 10.6962 6.03039 10.2736 6.42882Z" />
  </symbol>
  <symbol viewBox="0 0 20 20" id="manager">
    <path fill-rule="evenodd" clip-rule="evenodd" d="M10 0C6.4633 0 3.57513 2.68497 3.34821 6.08285C2.45073 6.21504 1.65681 6.72334 1.07887 7.44913C0.40359 8.29715 0 9.44397 0 10.6977C0 11.9514 0.40359 13.0982 1.07887 13.9462C1.75415 14.7942 2.72361 15.3488 3.80952 15.3488C4.05885 15.3488 4.28569 15.1272 4.28571 14.8837C4.28571 14.8837 4.28619 6.52373 4.28571 6.51163C4.28641 6.49711 4.28641 6.48255 4.28571 6.46802C4.30996 3.38874 6.8413 0.930233 10 0.930233C13.1612 0.930233 15.6941 3.39253 15.7143 6.47529C15.7144 6.48768 15.7143 6.49922 15.7143 6.51163C15.7133 6.52857 15.7143 14.6512 15.7143 14.6512C15.7143 15.7509 15.4737 16.6213 14.9702 17.202C14.4667 17.7828 13.6793 18.1395 12.381 18.1395H12.2991C12.1037 17.5969 11.5765 17.2093 10.9524 17.2093H9.04762C8.25619 17.2093 7.61905 17.8316 7.61905 18.6047C7.61905 19.3777 8.25619 20 9.04762 20H10.9524C11.5765 20 12.1037 19.6124 12.2991 19.0698H12.381C13.8684 19.0698 14.9872 18.6109 15.692 17.798C16.2683 17.1333 16.5519 16.277 16.6369 15.3125C17.5405 15.1823 18.34 14.6687 18.9211 13.939C19.5964 13.0909 20 11.9514 20 10.6977C20 9.44397 19.5964 8.29715 18.9211 7.44913C18.3432 6.72334 17.5493 6.21504 16.6518 6.08285C16.4249 2.68497 13.5367 0 10 0Z" />
  </symbol>
  <symbol viewBox="0 0 24 24" id="user">
    <path d="M11.9997 12.4399C15.1536 12.4399 17.7197 9.87386 17.7197 6.71996C17.7197 3.56606 15.1536 1 11.9997 1C8.84585 1 6.27979 3.56606 6.27979 6.71996C6.27979 9.87386 8.84585 12.4399 11.9997 12.4399Z"/>
    <path d="M18.8573 12.2024C18.6747 12.0559 18.4085 12.0783 18.2532 12.2543C16.663 14.0499 14.3834 15.08 11.9999 15.08C9.61647 15.08 7.33684 14.0499 5.74625 12.2543C5.59093 12.0787 5.32517 12.0554 5.14213 12.2024C2.51007 14.3042 1 17.4379 1 20.7999V22.5599C1 22.8032 1.19712 22.9999 1.44 22.9999H22.5599C22.8032 22.9999 22.9999 22.8032 22.9999 22.5599V20.7999C22.9999 17.4383 21.4898 14.3047 18.8573 12.2024Z"/>
  </symbol>
  <symbol viewBox="0 0 16 10" id="arow-dropdawn">
    <path fill-rule="evenodd" clip-rule="evenodd" d="M2.60481 0.46625C2.00815 -0.155417 1.04277 -0.155417 0.4469 0.46625C-0.148166 1.09458 -0.149766 2.10958 0.4469 2.73792L6.92064 9.53375C7.51651 10.1554 8.48269 10.1554 9.07936 9.53375L15.5531 2.73792C16.149 2.10958 16.149 1.09458 15.5531 0.46625C14.9564 -0.155417 13.9911 -0.155417 13.3944 0.46625L8.0004 6.13208L2.60481 0.46625Z"/>
  </symbol>
  <symbol viewBox="0 0 16 16" id="setting">
    <path d="M14.7693 6.30768H13.3782C13.2789 5.9932 13.1523 5.68773 12.9988 5.3944L13.9829 4.41004C14.2032 4.18976 14.2032 3.83268 13.9829 3.6124L12.3873 2.01684C12.1758 1.8053 11.8012 1.8053 11.5897 2.01684L10.6053 3.00119C10.312 2.84776 10.0068 2.72084 9.69233 2.62184V1.23076C9.69233 0.919374 9.43961 0.666656 9.12823 0.666656H6.87182C6.56043 0.666656 6.30771 0.919374 6.30771 1.23076V2.62184C5.99294 2.72084 5.68776 2.84748 5.39443 3.00119L4.41035 2.01712C4.19007 1.79684 3.83299 1.79684 3.61271 2.01712L2.01715 3.6124C1.91138 3.71817 1.85187 3.86173 1.85187 4.0115C1.85187 4.16099 1.9111 4.30455 2.01715 4.41032L3.00123 5.3944C2.84751 5.68802 2.72087 5.99348 2.62187 6.30796H1.23079C0.919405 6.30796 0.666687 6.56068 0.666687 6.87207V9.12848C0.666687 9.43986 0.919405 9.69258 1.23079 9.69258H2.62158C2.72087 10.0073 2.84751 10.3125 3.00123 10.6059L2.01687 11.5902C1.9111 11.696 1.85158 11.8396 1.85158 11.989C1.85158 12.1385 1.9111 12.2821 2.01687 12.3879L3.61243 13.9831C3.83271 14.2034 4.19007 14.2034 4.41007 13.9831L5.39443 12.9991C5.68776 13.1525 5.99294 13.2791 6.30743 13.3784V14.7692C6.30743 15.0806 6.56015 15.3333 6.87153 15.3333H9.12794C9.43933 15.3333 9.69205 15.0806 9.69205 14.7692V13.3779C10.0065 13.2786 10.3117 13.1519 10.605 12.9985L11.5897 13.9829C11.8012 14.1944 12.1758 14.1944 12.3873 13.9829L13.9826 12.3873C14.2029 12.167 14.2029 11.8099 13.9826 11.5897L12.9983 10.6053C13.1517 10.312 13.2783 10.0068 13.3776 9.6923H14.7693C15.0806 9.6923 15.3334 9.43958 15.3334 9.1282V6.87178C15.3334 6.5604 15.0806 6.30768 14.7693 6.30768ZM8.00002 11.3846C6.13369 11.3846 4.61541 9.86604 4.61541 7.99999C4.61541 6.13366 6.13369 4.61537 8.00002 4.61537C9.86635 4.61537 11.3846 6.13366 11.3846 7.99999C11.3846 9.86604 9.86607 11.3846 8.00002 11.3846Z" />
    <path d="M8.00022 6.35876C7.09519 6.35876 6.35919 7.09497 6.35919 7.99979C6.35919 8.90461 7.0954 9.64082 8.00022 9.64082C8.90504 9.64082 9.64124 8.90461 9.64124 7.99979C9.64124 7.09497 8.90504 6.35876 8.00022 6.35876Z"/>
  </symbol>
  <symbol viewBox="0 0 16 16" id="exit">
    <path fill-rule="evenodd" clip-rule="evenodd" d="M0.666687 0.666656V7.99999V15.3333L6.30748 12.3651V3.63491L0.666687 0.666656ZM13.0529 6.0739C12.9001 6.08112 12.7672 6.17363 12.7169 6.30784C12.6665 6.44205 12.7088 6.59119 12.8238 6.68501L13.9754 7.65078H8.56379C8.3475 7.65078 8.18774 7.83537 8.18774 7.99999C8.18774 8.16461 8.36665 8.3492 8.56379 8.3492H13.9754L12.8238 9.30951C12.7234 9.39318 12.6789 9.52032 12.7071 9.64281C12.7353 9.7653 12.8319 9.86442 12.9604 9.90263C13.0888 9.94085 13.2295 9.91233 13.3291 9.82787L15.2093 8.25644C15.2883 8.19022 15.3334 8.09605 15.3334 7.99726C15.3334 7.89847 15.2883 7.8043 15.2093 7.73808L13.3291 6.16666C13.2544 6.10226 13.1547 6.06879 13.0529 6.0739Z"/>
  </symbol>
  <symbol viewBox="0 0 20 20" id="search">
    <path fill-rule="evenodd" clip-rule="evenodd" d="M14.2857 12.5714H13.3714L13.0286 12.2286C14.1715 10.9714 14.8572 9.25714 14.8572 7.42857C14.8571 3.31429 11.5429 0 7.42857 0C3.31429 0 0 3.31429 0 7.42857C0 11.5429 3.31429 14.8571 7.42857 14.8571C9.25714 14.8571 10.9714 14.1714 12.2286 13.0286L12.5714 13.3714V14.2857L18.2857 20L20 18.2857L14.2857 12.5714ZM7.42857 12.5714C4.57143 12.5714 2.28571 10.2857 2.28571 7.42857C2.28571 4.57143 4.57143 2.28571 7.42857 2.28571C10.2857 2.28571 12.5714 4.57143 12.5714 7.42857C12.5714 10.2857 10.2857 12.5714 7.42857 12.5714Z"/>
  </symbol>
  <symbol viewBox="0 0 16 16" id="calendar">
    <path d="M14.3067 2.42666H12.9867V0.95999C12.9867 0.79807 12.8556 0.666656 12.6934 0.666656C12.5311 0.666656 12.4 0.79807 12.4 0.95999V2.42666H3.60002V0.95999C3.60002 0.79807 3.46861 0.666656 3.30669 0.666656C3.14477 0.666656 3.01335 0.79807 3.01335 0.95999V2.42666H1.69335C1.12722 2.42666 0.666687 2.88719 0.666687 3.45332V5.35999H15.3334V3.45332C15.3334 2.88719 14.8728 2.42666 14.3067 2.42666ZM0.666687 14.3067C0.666687 14.8728 1.12722 15.3333 1.69335 15.3333H14.3067C14.8728 15.3333 15.3334 14.8728 15.3334 14.3067V5.94666H0.666687V14.3067ZM12.1067 7.41332H13.28V8.58666H12.1067V7.41332ZM12.1067 9.75999H13.28V10.9333H12.1067V9.75999ZM12.1067 12.1067H13.28V13.28H12.1067V12.1067ZM9.76002 7.41332H10.9334V8.58666H9.76002V7.41332ZM9.76002 9.75999H10.9334V10.9333H9.76002V9.75999ZM9.76002 12.1067H10.9334V13.28H9.76002V12.1067ZM7.41335 7.41332H8.58669V8.58666H7.41335V7.41332ZM7.41335 9.75999H8.58669V10.9333H7.41335V9.75999ZM7.41335 12.1067H8.58669V13.28H7.41335V12.1067ZM5.06669 7.41332H6.24002V8.58666H5.06669V7.41332ZM5.06669 9.75999H6.24002V10.9333H5.06669V9.75999ZM5.06669 12.1067H6.24002V13.28H5.06669V12.1067ZM2.72002 7.41332H3.89335V8.58666H2.72002V7.41332ZM2.72002 9.75999H3.89335V10.9333H2.72002V9.75999ZM2.72002 12.1067H3.89335V13.28H2.72002V12.1067Z"/>
  </symbol>
  <symbol viewBox="0 0 16 16" id="calendar">
    <path d="M14.3067 2.42666H12.9867V0.95999C12.9867 0.79807 12.8556 0.666656 12.6934 0.666656C12.5311 0.666656 12.4 0.79807 12.4 0.95999V2.42666H3.60002V0.95999C3.60002 0.79807 3.46861 0.666656 3.30669 0.666656C3.14477 0.666656 3.01335 0.79807 3.01335 0.95999V2.42666H1.69335C1.12722 2.42666 0.666687 2.88719 0.666687 3.45332V5.35999H15.3334V3.45332C15.3334 2.88719 14.8728 2.42666 14.3067 2.42666ZM0.666687 14.3067C0.666687 14.8728 1.12722 15.3333 1.69335 15.3333H14.3067C14.8728 15.3333 15.3334 14.8728 15.3334 14.3067V5.94666H0.666687V14.3067ZM12.1067 7.41332H13.28V8.58666H12.1067V7.41332ZM12.1067 9.75999H13.28V10.9333H12.1067V9.75999ZM12.1067 12.1067H13.28V13.28H12.1067V12.1067ZM9.76002 7.41332H10.9334V8.58666H9.76002V7.41332ZM9.76002 9.75999H10.9334V10.9333H9.76002V9.75999ZM9.76002 12.1067H10.9334V13.28H9.76002V12.1067ZM7.41335 7.41332H8.58669V8.58666H7.41335V7.41332ZM7.41335 9.75999H8.58669V10.9333H7.41335V9.75999ZM7.41335 12.1067H8.58669V13.28H7.41335V12.1067ZM5.06669 7.41332H6.24002V8.58666H5.06669V7.41332ZM5.06669 9.75999H6.24002V10.9333H5.06669V9.75999ZM5.06669 12.1067H6.24002V13.28H5.06669V12.1067ZM2.72002 7.41332H3.89335V8.58666H2.72002V7.41332ZM2.72002 9.75999H3.89335V10.9333H2.72002V9.75999ZM2.72002 12.1067H3.89335V13.28H2.72002V12.1067Z"/>
  </symbol>
  <symbol viewBox="0 0 20 20" id="search">
    <path fill-rule="evenodd" clip-rule="evenodd" d="M14.2857 12.5714H13.3714L13.0286 12.2286C14.1715 10.9714 14.8572 9.25714 14.8572 7.42857C14.8571 3.31429 11.5429 0 7.42857 0C3.31429 0 0 3.31429 0 7.42857C0 11.5429 3.31429 14.8571 7.42857 14.8571C9.25714 14.8571 10.9714 14.1714 12.2286 13.0286L12.5714 13.3714V14.2857L18.2857 20L20 18.2857L14.2857 12.5714ZM7.42857 12.5714C4.57143 12.5714 2.28571 10.2857 2.28571 7.42857C2.28571 4.57143 4.57143 2.28571 7.42857 2.28571C10.2857 2.28571 12.5714 4.57143 12.5714 7.42857C12.5714 10.2857 10.2857 12.5714 7.42857 12.5714Z"/>
  </symbol>
  <symbol viewBox="0 0 24 24" id="sortTableIcon">
    <path d="M4 6.78571C4 6.35178 4.33579 6 4.75 6H19.25C19.6642 6 20 6.35178 20 6.78571C20 7.21965 19.6642 7.57143 19.25 7.57143H4.75C4.33579 7.57143 4 7.21965 4 6.78571Z" fill="#596982"/>
    <path d="M4 9.92857C4 9.49463 4.33579 9.14286 4.75 9.14286H16.75C17.1642 9.14286 17.5 9.49463 17.5 9.92857C17.5 10.3625 17.1642 10.7143 16.75 10.7143H4.75C4.33579 10.7143 4 10.3625 4 9.92857Z" fill="#596982"/>
    <path d="M4 13.0714C4 12.6375 4.33579 12.2857 4.75 12.2857H12.25C12.6642 12.2857 13 12.6375 13 13.0714C13 13.5054 12.6642 13.8571 12.25 13.8571H4.75C4.33579 13.8571 4 13.5054 4 13.0714Z" fill="#596982"/>
    <path d="M4 16.2143C4 15.7803 4.33579 15.4286 4.75 15.4286H8.25C8.66421 15.4286 9 15.7803 9 16.2143C9 16.6482 8.66421 17 8.25 17H4.75C4.33579 17 4 16.6482 4 16.2143Z" fill="#596982"/>
  </symbol>
  <symbol viewBox="0 0 13 22" id="cpcmob">
    <path d="M9.76939 0H2.33715C1.07361 0 0 1.03027 0 2.29347V19.7092C0 20.9724 1.05089 22 2.31444 22L9.75891 21.992C11.0223 21.992 12.0559 20.9641 12.0559 19.7008L12.0667 2.29225C12.0665 1.0245 11.038 0 9.76939 0ZM4.97958 1.37503H7.13588C7.3253 1.37503 7.47959 1.5288 7.47959 1.71875C7.47959 1.90869 7.3253 2.06246 7.13588 2.06246H4.97958C4.78964 2.06246 4.63586 1.90869 4.63586 1.71875C4.63586 1.5288 4.78964 1.37503 4.97958 1.37503ZM3.68388 1.48442C3.81126 1.35721 4.04315 1.35546 4.17036 1.48442C4.23414 1.54803 4.27188 1.63732 4.27188 1.72853C4.27188 1.818 4.23414 1.90712 4.17036 1.9709C4.10693 2.03468 4.01728 2.07225 3.92799 2.07225C3.83695 2.07225 3.74941 2.03468 3.68388 1.9709C3.62045 1.90729 3.58428 1.818 3.58428 1.72853C3.5841 1.63732 3.62045 1.54803 3.68388 1.48442ZM5.98836 21.3187C5.42115 21.3187 4.95983 20.857 4.95983 20.29C4.95983 19.7228 5.42115 19.2613 5.98836 19.2613C6.55556 19.2613 7.01688 19.7228 7.01688 20.29C7.01688 20.857 6.55539 21.3187 5.98836 21.3187ZM10.9997 18.5622H1.20309V3.26572H10.9997V18.5622Z" fill="#12284C"/>
  </symbol>
  <symbol viewBox="0 0 20 18" id="cpcdesc">
    <path d="M19.5103 0.822983C19.1839 0.496625 18.7918 0.333282 18.3333 0.333282H1.66667C1.20834 0.333282 0.816094 0.496625 0.489518 0.822983C0.163124 1.14945 0 1.54166 0 2.00002V13.3334C0 13.7919 0.163124 14.1841 0.489518 14.5106C0.816094 14.837 1.20834 15 1.66667 15H7.33343C7.33343 15.2639 7.27783 15.5349 7.16669 15.8125C7.05563 16.0903 6.9445 16.3333 6.83337 16.5415C6.72238 16.75 6.66681 16.9026 6.66681 16.9998C6.66681 17.1803 6.73274 17.3369 6.86471 17.4685C6.9966 17.6006 7.15286 17.6668 7.33343 17.6668H12.6668C12.8473 17.6668 13.0036 17.6006 13.1355 17.4685C13.2676 17.3369 13.3335 17.1803 13.3335 16.9998C13.3335 16.9097 13.2778 16.7586 13.1667 16.5468C13.0556 16.3352 12.9445 16.0883 12.8335 15.8074C12.7224 15.5261 12.6668 15.257 12.6668 15H18.3336C18.7918 15 19.184 14.837 19.5103 14.5106C19.8368 14.1841 20 13.7919 20 13.3334V2.00002C20.0001 1.54166 19.8368 1.14945 19.5103 0.822983ZM18.6667 10.6667C18.6667 10.757 18.6337 10.835 18.5677 10.9011C18.5017 10.9669 18.4236 10.9999 18.3333 10.9999H1.66667C1.57644 10.9999 1.49829 10.9669 1.43232 10.9011C1.3664 10.8348 1.33338 10.757 1.33338 10.6667V2.00002C1.33338 1.90972 1.36629 1.83164 1.43232 1.76568C1.49833 1.69982 1.57648 1.66673 1.66667 1.66673H18.3335C18.4237 1.66673 18.502 1.69972 18.5677 1.76568C18.6337 1.83168 18.6667 1.90976 18.6667 2.00002V10.6667Z" fill="#12284C"/>
  </symbol>
  <symbol  viewBox="0 0 10 18" id="arrowLeft">
    <path fill-rule="evenodd" clip-rule="evenodd" d="M9.53033 0.46967C9.82322 0.762563 9.82322 1.23744 9.53033 1.53033L2.06066 9L9.53033 16.4697C9.82322 16.7626 9.82322 17.2374 9.53033 17.5303C9.23744 17.8232 8.76256 17.8232 8.46967 17.5303L0.46967 9.53033C0.176776 9.23744 0.176777 8.76256 0.46967 8.46967L8.46967 0.46967C8.76256 0.176777 9.23744 0.176777 9.53033 0.46967Z" fill="#2F80ED"/>
  </symbol>
  <symbol  viewBox="0 0 11 16" id="ruble">
    <path d="M6.325 9.47735C8.90279 9.47735 11 7.35158 11 4.73868C11 2.12577 8.90279 0 6.325 0C6.31493 0 6.30492 0.000167247 6.29497 0.000557491H2.4761C2.47571 0.000557491 2.47538 0.000501742 2.47505 0.000501742C2.01943 0.000501742 1.65005 0.374913 1.65005 0.836739V0.836794V8.64112V11.1498H0.825C0.36938 11.1498 0 11.5242 0 11.9861C0 12.4479 0.36938 12.8223 0.825 12.8223H1.65V15.1638C1.65 15.6256 2.01938 16 2.475 16C2.93062 16 3.3 15.6256 3.3 15.1638V12.8223H6.325C6.78062 12.8223 7.15 12.4479 7.15 11.9861C7.15 11.5242 6.78062 11.1498 6.325 11.1498H3.3V9.47735H6.325ZM6.325 1.67303C6.33391 1.67303 6.34282 1.67286 6.35162 1.67259C8.00745 1.68708 9.35 3.05695 9.35 4.73868C9.35 6.42938 7.99298 7.80488 6.325 7.80488H3.3V1.67303H6.325Z"/>
  </symbol>
  <symbol  viewBox="0 0 16 16" id="add">
    <path fill-rule="evenodd" clip-rule="evenodd" d="M8.00001 15.7782C7.28377 15.7782 6.70365 15.1981 6.70365 14.4818L6.70365 9.29638L1.51819 9.29638C0.801953 9.29638 0.221829 8.71626 0.221829 8.00002C0.221829 7.28377 0.801953 6.70365 1.51819 6.70365L6.70365 6.70365L6.70365 1.5182C6.70365 0.801955 7.28377 0.221832 8.00001 0.221832C8.71626 0.221832 9.29638 0.801955 9.29638 1.5182L9.29638 6.70365L14.4818 6.70365C15.1974 6.70365 15.7782 7.28377 15.7782 8.00002C15.7782 8.71626 15.1974 9.29638 14.4818 9.29638L9.29638 9.29638L9.29638 14.4818C9.29638 15.1981 8.71625 15.7782 8.00001 15.7782Z" />
  </symbol>
  <symbol  viewBox="0 0 16 16" id="download">
    <path d="M14.019 10.9935C13.4426 10.9935 12.9753 11.4607 12.9753 12.0371V13.6638H3.02463V12.0371C3.02463 11.4608 2.55738 10.9935 1.981 10.9935C1.40463 10.9935 0.937378 11.4607 0.937378 12.0371V14.7074C0.937378 15.2838 1.40463 15.7512 1.981 15.7512H14.019C14.5954 15.7512 15.0627 15.2838 15.0627 14.7074V12.0371C15.0627 11.4607 14.5954 10.9935 14.019 10.9935Z" />
    <path d="M7.68491 12.1039C7.85876 12.2776 8.14116 12.2776 8.31482 12.1039L11.9723 8.44647C12.0789 8.3399 12.1105 8.17984 12.0529 8.04022C11.9953 7.90115 11.8598 7.8105 11.7088 7.8105H9.99144V1.06325C9.99144 0.613185 9.62704 0.248779 9.17707 0.248779H6.82322C6.37329 0.248779 6.00885 0.613154 6.00885 1.06325V7.8105H4.29094C4.1401 7.8105 4.0046 7.90112 3.94697 8.04022C3.88935 8.17984 3.92104 8.3399 4.02744 8.44647L7.68491 12.1039Z" />
  </symbol>
  <symbol  viewBox="0 0 22 22" id="wallet">
    <path fill-rule="evenodd" clip-rule="evenodd" d="M19.25 4.125V1.375C19.25 0.615312 18.6347 0 17.875 0H16.4993H4.12431C1.84594 0 0 1.848 0 4.125V20.625C0 21.3847 0.614625 22 1.37431 22H20.625C21.3847 22 22 21.3847 22 20.625V4.125H19.25ZM4.12431 2.75H16.5V4.125H2.74931C2.74931 3.36531 3.36462 2.75 4.12431 2.75ZM17.875 13.75C17.1153 13.75 16.4993 13.1347 16.4993 12.375C16.4993 11.6153 17.1153 11 17.875 11C18.6347 11 19.25 11.6153 19.25 12.375C19.25 13.1347 18.6347 13.75 17.875 13.75Z" />
  </symbol>
  <symbol  viewBox="0 0 22 22" id="balanceplus">
    <path d="M11 22C17.0751 22 22 17.0751 22 11C22 4.92487 17.0751 0 11 0C4.92487 0 0 4.92487 0 11C0 17.0751 4.92487 22 11 22Z"/>
    <path fill-rule="evenodd" clip-rule="evenodd" d="M15.8894 11.0002C15.8894 11.4504 15.5248 11.815 15.0746 11.815H11.8153V15.0743C11.8153 15.5245 11.4507 15.8891 11.0005 15.8891C10.5503 15.8891 10.1857 15.5245 10.1857 15.0743V11.815H6.92645C6.47626 11.815 6.11163 11.4504 6.11163 11.0002C6.11163 10.55 6.47626 10.1854 6.92645 10.1854H10.1857V6.92614C10.1857 6.47637 10.5503 6.11133 11.0005 6.11133C11.4507 6.11133 11.8153 6.47637 11.8153 6.92614V10.1854H15.0746C15.5248 10.1854 15.8894 10.55 15.8894 11.0002Z" fill="white"/>
  </symbol>
  <symbol  viewBox="0 0 22 22" id="balanceminus">
    <path d="M11 22C17.0751 22 22 17.0751 22 11C22 4.92487 17.0751 0 11 0C4.92487 0 0 4.92487 0 11C0 17.0751 4.92487 22 11 22Z" />
    <path fill-rule="evenodd" clip-rule="evenodd" d="M15.8894 11.0002C15.8894 11.4504 15.5248 11.815 15.0746 11.815C15.0746 11.815 12.1306 11.815 11.8153 11.815C11.5001 11.815 10.5001 11.815 10.1857 11.815C9.87135 11.815 6.92645 11.815 6.92645 11.815C6.47626 11.815 6.11163 11.4504 6.11163 11.0002C6.11163 10.55 6.47626 10.1854 6.92645 10.1854C6.92645 10.1854 9.37135 10.1854 10.1857 10.1854C11.0001 10.1854 11.5001 10.1854 11.8153 10.1854C12.1306 10.1854 15.0746 10.1854 15.0746 10.1854C15.5248 10.1854 15.8894 10.55 15.8894 11.0002Z" fill="white"/>
  </symbol>
  <symbol  viewBox="0 0 17 16" id="webmoney">
    <path d="M8.46193 0.121765C9.71018 0.121765 10.8979 0.407765 11.9637 0.921765C12.1312 0.997265 12.2987 1.08752 12.4657 1.17777L11.7349 1.82502L10.6394 0.696265L8.75193 2.35127L7.63993 1.16002L4.16868 4.24552L6.39118 6.66852L5.52368 7.42102L7.71618 9.84402L6.84868 10.596L9.98493 14.0425L11.8412 12.3568L13.4557 14.1633C13.1357 14.404 12.7857 14.6453 12.4057 14.8558C11.2056 15.5275 9.85298 15.8795 8.47768 15.8783C4.07743 15.8783 0.499928 12.3425 0.499928 7.99327C0.484428 3.67352 4.06243 0.121765 8.46193 0.121765ZM6.99993 7.51127L8.90293 5.82552L10.6084 7.70677L8.70493 9.39227L6.99993 7.51127ZM8.35493 10.762L10.2424 9.06152L11.9629 10.9425L10.0597 12.6283L8.35493 10.762ZM5.64593 4.30577L7.54593 2.62002L9.25093 4.50127L7.34768 6.18677L5.64593 4.30577ZM9.13168 3.40002L10.5499 2.13852L11.8289 3.53852L10.4129 4.81752L9.13168 3.40002ZM11.6567 9.19427L13.0749 7.93252L14.3539 9.34677L12.9379 10.6118L11.6567 9.19427ZM12.9049 12.0393L14.3209 10.7748L15.5989 12.1748L14.1834 13.4538L12.9049 12.0393ZM13.4837 5.53752L14.4274 4.69452L15.2799 5.62802L14.3364 6.47052L13.4837 5.53752ZM12.2657 2.75327L13.2094 1.89577L14.0624 2.84377L13.1179 3.68627L12.2657 2.75327ZM14.6862 8.32202L15.6299 7.47952L16.4999 8.41452L15.5412 9.25702L14.6862 8.32202ZM10.4362 6.23002L11.8522 4.96577L13.1307 6.36527L11.7152 7.62977L10.4362 6.23002Z" />
  </symbol>
  <symbol  viewBox="0 0 16 24" id="capitalist">
    <path d="M4.37246 24C4.19798 23.9685 4.02157 23.9451 3.84925 23.9047C2.97394 23.6991 2.23178 23.3002 1.76624 22.5128C1.57686 22.192 1.47087 21.8424 1.41174 21.467C1.48625 21.4834 1.52951 21.5298 1.57854 21.5643C1.91333 21.8002 2.25725 22.02 2.65525 22.1432C3.21764 22.3173 3.76681 22.2441 4.31358 22.0655C4.79426 21.9081 5.19081 21.623 5.56334 21.2983C5.79286 21.0976 6.01733 20.8916 6.26416 20.7116C6.8292 20.2975 7.3142 20.3472 7.77829 20.8686C7.8326 20.9255 7.88363 20.9853 7.93114 21.0477C7.97921 21.1166 8.0143 21.1239 8.06982 21.0519C8.13721 20.9645 8.21111 20.8822 8.29093 20.8055C8.78002 20.3348 9.22825 20.3113 9.77117 20.7199C10.0728 20.9468 10.3444 21.2067 10.6313 21.4498C11.1543 21.9 11.8123 22.173 12.5072 22.2282C13.034 22.2751 13.5099 22.1237 13.9557 21.8628C14.1737 21.7332 14.3844 21.5922 14.5868 21.4404C14.5801 21.6305 14.5306 21.7854 14.484 21.9391C14.2751 22.6263 13.8442 23.1423 13.2102 23.4995C12.7055 23.782 12.1403 23.9456 11.5595 23.9774H11.0007C10.7692 23.9669 10.5391 23.9364 10.3131 23.8862C9.45969 23.702 8.70599 23.3319 8.07799 22.7333C8.02247 22.6803 7.9893 22.6815 7.93379 22.7352C7.6067 23.0516 7.22848 23.3132 6.81429 23.5095C6.2644 23.7735 5.68711 23.9427 5.07185 23.9763C4.91875 23.9763 4.76566 23.9727 4.61256 23.9763C4.5568 23.9774 4.49504 23.9504 4.44432 23.9976L4.37246 24Z" fill="#12284C"/>
    <path d="M0 10.6876C0.0331666 10.6728 0.0223514 10.6407 0.0288405 10.6161C0.143962 10.1608 0.56912 9.95107 1.01423 10.1308C1.13439 10.1789 1.23798 10.2512 1.34421 10.3206C2.57092 11.1251 3.94092 11.6985 5.38356 12.0113C6.6078 12.2765 7.8669 12.3538 9.11553 12.2405C10.7907 12.0936 12.3649 11.6281 13.8305 10.8221C14.1535 10.6442 14.4628 10.4417 14.7808 10.2554C14.9444 10.1555 15.1336 10.1026 15.3266 10.1027C15.4673 10.1038 15.6039 10.149 15.7164 10.2315C15.8289 10.3141 15.9113 10.4297 15.9515 10.5614C15.9649 10.6039 15.9599 10.6538 15.9995 10.6876V10.8988C15.9594 10.9408 15.9625 10.9981 15.9435 11.0476C15.8762 11.2228 15.7544 11.3526 15.5946 11.4519C14.1689 12.3311 12.6504 13.0024 11.0067 13.3912C9.81188 13.6762 8.58076 13.7893 7.35241 13.7268C5.5929 13.6357 3.92904 13.177 2.33416 12.4597C1.67833 12.1614 1.03946 11.8288 0.420351 11.4634C0.204047 11.3367 0.0761871 11.1489 0 10.9209L0 10.6876Z" fill="#12284C"/>
    <path d="M5.07112 23.9782C5.06845 23.9811 5.06677 23.9848 5.0663 23.9887C5.06582 23.9926 5.06658 23.9965 5.06848 24H4.4436C4.49407 23.9531 4.55584 23.9798 4.61184 23.9786C4.76541 23.9747 4.91851 23.9779 5.07112 23.9782Z" fill="#12284C"/>
    <path d="M11.003 24C11.0038 23.9932 11.003 23.9862 11.0009 23.9796H11.5577C11.5554 23.9863 11.5547 23.9933 11.5555 24.0003L11.003 24Z" fill="#12284C"/>
    <path d="M11.1954 19.3254C9.95666 19.313 8.93739 18.4152 8.79703 17.2042C8.78785 17.1462 8.78607 17.0873 8.79174 17.0289C8.81097 16.8987 8.73502 16.8443 8.62591 16.8128C8.21272 16.6931 7.77183 16.7002 7.36293 16.8332C7.27425 16.8609 7.22161 16.9064 7.21873 17.016C7.20215 17.6169 6.98849 18.1458 6.55972 18.5802C5.98291 19.1651 5.27368 19.4033 4.44788 19.2956C3.24619 19.1388 2.30887 18.0773 2.38097 16.8058C2.4413 15.7299 3.34833 14.7597 4.44283 14.6252C5.64788 14.4776 6.69071 15.0997 7.09424 16.2124C7.12043 16.2846 7.14543 16.2947 7.22161 16.2727C7.74387 16.1218 8.26949 16.1124 8.79294 16.2661C8.87322 16.2896 8.891 16.2687 8.916 16.2023C9.2354 15.3547 9.84755 14.831 10.7534 14.6419C11.7748 14.4286 12.8924 14.9605 13.3596 15.8759C14.0821 17.2945 13.2875 18.9263 11.7039 19.274C11.539 19.3113 11.371 19.3165 11.1954 19.3254ZM4.79444 15.1487C3.76868 15.1553 2.94096 15.9688 2.94553 16.9663C2.94466 17.2055 2.99237 17.4426 3.0859 17.6637C3.17943 17.8849 3.31692 18.0857 3.49042 18.2547C3.66393 18.4237 3.87001 18.5574 4.09676 18.6481C4.32352 18.7389 4.56644 18.7848 4.8115 18.7834C5.05655 18.7819 5.29889 18.7331 5.52449 18.6396C5.75009 18.5462 5.95449 18.41 6.12588 18.239C6.29726 18.068 6.43224 17.8655 6.523 17.6433C6.61376 17.421 6.65851 17.1834 6.65466 16.9442C6.64745 15.9528 5.80723 15.1419 4.79444 15.1482V15.1487ZM11.2018 18.7716C12.2204 18.777 13.0606 17.9635 13.0659 16.9667C13.0712 15.97 12.2447 15.16 11.2153 15.1482C10.2059 15.1356 9.36062 15.9538 9.35077 16.9538C9.34091 17.9431 10.1797 18.7665 11.2018 18.7716Z" fill="#12284C"/>
    <path d="M8.02465 0C9.56185 0 11.0991 0 12.6363 0C12.8727 0 13.1003 0.0394204 13.3025 0.161671C13.5945 0.338593 13.7949 0.58239 13.717 1.0491C13.4575 2.60409 13.2171 4.16191 12.9694 5.71854C12.9453 5.87271 12.9213 6.02687 12.8951 6.18079C12.8593 6.39573 12.7269 6.50789 12.5029 6.51681C12.475 6.51798 12.4469 6.51681 12.4187 6.51681L3.54428 6.52033C3.50823 6.52033 3.47218 6.52033 3.43613 6.51845C3.21814 6.50484 3.08788 6.39268 3.05568 6.18338C2.87622 5.02282 2.69733 3.86203 2.519 2.701C2.43104 2.13035 2.35677 1.55711 2.2491 0.989969C2.1758 0.605854 2.40773 0.300346 2.71584 0.140787C2.91964 0.0347275 3.13907 0 3.36475 0C4.91893 0 6.47223 0 8.02465 0Z" fill="#12284C"/>
    <path d="M7.96373 7.35169H12.1788C12.2547 7.35169 12.3307 7.3484 12.4047 7.37187C12.5864 7.42912 12.6691 7.6098 12.6385 7.77757C12.5309 8.38765 12.4434 9.00148 12.3477 9.6139C12.3237 9.76431 12.3016 9.91472 12.2756 10.0647C12.2384 10.2782 12.1055 10.4316 11.9348 10.5562C11.6493 10.7646 11.3227 10.8911 10.9853 10.9924C10.213 11.224 9.41801 11.3268 8.61576 11.3949C7.44556 11.4944 6.30155 11.343 5.17125 11.0624C4.80689 10.9718 4.45552 10.8437 4.13251 10.6482C3.83905 10.4708 3.66986 10.2331 3.62467 9.8875C3.5319 9.17582 3.41077 8.4679 3.29998 7.75856C3.26825 7.5563 3.39611 7.38313 3.6052 7.35826C3.66494 7.35251 3.72498 7.35039 3.78498 7.35192C5.17781 7.35145 6.57073 7.35137 7.96373 7.35169Z" fill="#12284C"/>
  </symbol>
  <symbol  viewBox="0 0 10 8" id="arrowdown">
    <path fill-rule="evenodd" clip-rule="evenodd" d="M8.37199 1.16641C8.74491 0.777864 9.34827 0.777865 9.72069 1.16641C10.0926 1.55911 10.0936 2.19349 9.72069 2.5862L5.6746 6.83359C5.30218 7.22213 4.69832 7.22213 4.3254 6.83359L0.279312 2.5862C-0.0931045 2.19349 -0.0931044 1.55911 0.279312 1.16641C0.652228 0.777864 1.25559 0.777864 1.62851 1.16641L4.99975 4.70755L8.37199 1.16641Z" fill="#4690FF"/>
  </symbol>
  <symbol  viewBox="0 0 16 16" id="clock">
    <path d="M7.992 0C3.576 0 0 3.584 0 8C0 12.416 3.576 16 7.992 16C12.416 16 16 12.416 16 8C16 3.584 12.416 0 7.992 0ZM8 14.4C4.464 14.4 1.6 11.536 1.6 8C1.6 4.464 4.464 1.6 8 1.6C11.536 1.6 14.4 4.464 14.4 8C14.4 11.536 11.536 14.4 8 14.4Z" fill="#BDBDBD"/>
    <path d="M8.39922 4H7.19922V8.8L11.3992 11.32L11.9992 10.336L8.39922 8.2V4Z" fill="#BDBDBD"/>
  </symbol>
  <symbol viewBox="0 0 41 40" id="check">
    <path fill-rule="evenodd" clip-rule="evenodd" d="M20.5 0C9.455 0 0.5 8.955 0.5 20C0.5 31.045 9.455 40 20.5 40C31.545 40 40.5 31.045 40.5 20C40.5 8.955 31.545 0 20.5 0ZM18 27.5025L10.5 20.0025L14.25 16.2525L18 20.0025L26.75 11.2525L30.5 15.0025L18 27.5025Z" fill="#4690FF"/>
  </symbol>
  <symbol viewBox="0 0 41 40" id="nocheck">
    <path fill-rule="evenodd" clip-rule="evenodd" d="M20.5 40C31.5457 40 40.5 31.0457 40.5 20C40.5 8.9543 31.5457 0 20.5 0C9.4543 0 0.5 8.9543 0.5 20C0.5 31.0457 9.4543 40 20.5 40ZM26.3521 28.3345C27.1604 29.1428 28.4699 29.1428 29.2782 28.3345C30.0865 27.5262 30.0865 26.2168 29.2782 25.4085L23.4261 19.5563L29.2782 13.7042C30.0858 12.8966 30.0865 11.5865 29.2782 10.7782C28.4699 9.96985 27.1597 9.97058 26.3521 10.7782L20.5 16.6303L14.6479 10.7782C13.8396 9.96985 12.5301 9.96985 11.7218 10.7782C10.9135 11.5865 10.9135 12.8959 11.7218 13.7042L17.5739 19.5563L11.7218 25.4085C10.9135 26.2168 10.9135 27.5262 11.7218 28.3345C12.5301 29.1428 13.8396 29.1428 14.6479 28.3345L20.5 22.4824L26.3521 28.3345Z" fill="#4690FF"/>
  </symbol>
  <symbol viewBox="0 0 24 24" id="icon15">
    <g clip-path="url(#clip0)">
      <rect x="1.58301" y="4" width="21.3333" height="3.69232" rx="1" fill="#596982" />
      <rect x="1.58301" y="10.1543" width="21.3333" height="3.69232" rx="1" fill="#596982" />
      <rect x="1.58301" y="16.3076" width="21.3333" height="3.69232" rx="1" fill="#596982" />
    </g>
    <defs>
      <clipPath id="clip0">
        <rect width="24" height="24" fill="white" transform="translate(0.25)" />
      </clipPath>
    </defs>
  </symbol>
  <symbol viewBox="0 0 24 24" id="icon16">
    <g clip-path="url(#clip0)">
      <path fill-rule="evenodd" clip-rule="evenodd"
        d="M19.7782 19.7784C19.0619 20.4946 17.9017 20.4946 17.1854 19.7784L12 14.5929L6.81455 19.7784C6.09831 20.4946 4.93807 20.4946 4.22182 19.7784C3.50558 19.0621 3.50559 17.9019 4.22183 17.1856L9.40728 12.0002L4.22183 6.81475C3.50559 6.09851 3.50559 4.93826 4.22183 4.22202C4.93807 3.50578 6.09831 3.50578 6.81455 4.22202L12 9.40747L17.1854 4.22202C17.901 3.50643 19.0619 3.50578 19.7782 4.22202C20.4944 4.93826 20.4938 6.09915 19.7782 6.81475L14.5927 12.0002L19.7782 17.1856C20.4944 17.9019 20.4944 19.0621 19.7782 19.7784Z"
        fill="#4690ff" />
    </g>
    <defs>
      <clipPath id="clip0">
        <rect width="24" height="24" fill="white" />
      </clipPath>
    </defs>
  </symbol>
  <symbol viewBox="0 0 8 10" id="arrow-left">
    <path fill-rule="evenodd" clip-rule="evenodd" d="M6.83359 1.62801C7.22214 1.25509 7.22214 0.651728 6.83359 0.279312C6.44089 -0.092604 5.80651 -0.0936037 5.4138 0.279312L1.16641 4.3254C0.777866 4.69782 0.777866 5.30168 1.16641 5.6746L5.4138 9.72069C5.80651 10.0931 6.44089 10.0931 6.83359 9.72069C7.22214 9.34777 7.22214 8.74441 6.83359 8.37149L3.29245 5.00025L6.83359 1.62801Z" />
  </symbol>
  <symbol viewBox="0 0 16 14" id="showcase-icon">
      <path id="icon/action/view_carousel_24px" fill-rule="evenodd" clip-rule="evenodd" d="M4 13.6667H12V0.333336H4V13.6667ZM0 2.33334H2.66667V3.66667H1.33333V10.3333H2.66667V11.6667H0V2.33334ZM14.6667 3.66667H13.3333V2.33334H16V11.6667H13.3333V10.3333H14.6667V3.66667Z"/>
  </symbol>
  <symbol viewBox="0 0 14 8" id="stronk">
    <path d="M0.646447 6.89645C0.451184 7.09171 0.451184 7.40829 0.646447 7.60355C0.841709 7.79882 1.15829 7.79882 1.35355 7.60355L0.646447 6.89645ZM4 4.25L4.35355 3.89645C4.15829 3.70118 3.84171 3.70118 3.64645 3.89645L4 4.25ZM7 7.25L6.64645 7.60355C6.74267 7.69977 6.87395 7.75262 7.00999 7.7499C7.14604 7.74718 7.2751 7.68913 7.3674 7.58914L7 7.25ZM13.4996 0.730016C13.4886 0.454094 13.2559 0.239363 12.98 0.2504L8.48361 0.430256C8.20769 0.441293 7.99296 0.673918 8.004 0.94984C8.01503 1.22576 8.24766 1.44049 8.52358 1.42946L12.5204 1.26958L12.6803 5.26639C12.6913 5.54231 12.9239 5.75704 13.1998 5.746C13.4758 5.73497 13.6905 5.50234 13.6795 5.22642L13.4996 0.730016ZM1.35355 7.60355L4.35355 4.60355L3.64645 3.89645L0.646447 6.89645L1.35355 7.60355ZM3.64645 4.60355L6.64645 7.60355L7.35355 6.89645L4.35355 3.89645L3.64645 4.60355ZM7.3674 7.58914L13.3674 1.08914L12.6326 0.41086L6.6326 6.91086L7.3674 7.58914Z"/>
  </symbol>
  <symbol viewBox="0 0 20 20" id="sendfile">
    <path d="M19 13V14.2C19 15.8802 19 16.7202 18.673 17.362C18.3854 17.9265 17.9265 18.3854 17.362 18.673C16.7202 19 15.8802 19 14.2 19H5.8C4.11984 19 3.27976 19 2.63803 18.673C2.07354 18.3854 1.6146 17.9265 1.32698 17.362C1 16.7202 1 15.8802 1 14.2V13M15 6L10 1M10 1L5 6M10 1V13" stroke="#4690FF" stroke-width="2" stroke-linecap="round" stroke-linejoin="round"/>
  </symbol>
  <symbol viewBox="0 0 20 22" id="loading">
    <path d="M12 21C12 21 12.8492 20.8787 16.364 17.364C19.8787 13.8492 19.8787 8.15076 16.364 4.63604C15.1187 3.39077 13.5993 2.58669 12 2.22383M12 21H18M12 21L12 15M8 1.00019C8 1.00019 7.15076 1.12152 3.63604 4.63624C0.12132 8.15095 0.12132 13.8494 3.63604 17.3642C4.88131 18.6094 6.40072 19.4135 8 19.7764M8 1.00019L2 1M8 1.00019L8 7" stroke-width="2" stroke-linecap="round" stroke-linejoin="round"/>
  </symbol>
  <symbol viewBox="0 0 20 19" id="star">
    <path d="M9.04894 0.927052C9.3483 0.00574112 10.6517 0.00573993 10.9511 0.927051L12.4697 5.60081C12.6035 6.01284 12.9875 6.2918 13.4207 6.2918H18.335C19.3037 6.2918 19.7065 7.53141 18.9228 8.10081L14.947 10.9894C14.5966 11.244 14.4499 11.6954 14.5838 12.1074L16.1024 16.7812C16.4017 17.7025 15.3472 18.4686 14.5635 17.8992L10.5878 15.0106C10.2373 14.756 9.7627 14.756 9.41221 15.0106L5.43648 17.8992C4.65276 18.4686 3.59828 17.7025 3.89763 16.7812L5.41623 12.1074C5.55011 11.6954 5.40345 11.244 5.05296 10.9894L1.07722 8.10081C0.293507 7.53141 0.696283 6.2918 1.66501 6.2918H6.57929C7.01252 6.2918 7.39647 6.01284 7.53035 5.60081L9.04894 0.927052Z" fill="#4690FF"/>
  </symbol>
  <symbol viewBox="0 0 56 50" id="add-image">
    <path fill-rule="evenodd" clip-rule="evenodd" d="M2.99171 0.151078C1.98812 0.387827 1.00271 1.20545 0.480476 2.23468L0 3.18151V20.0545V36.9274L0.480476 37.8742C1.01948 38.9366 1.98114 39.7131 3.07051 39.9655C3.44772 40.053 8.42406 40.1263 14.129 40.1286L24.5013 40.1328L24.3832 39.6526C24.3182 39.3887 24.2207 38.0136 24.1666 36.5973L24.0679 34.022H15.0041H5.94044V27.0745V20.1271L8.6049 17.4933C10.0704 16.0447 11.5438 14.7201 11.8795 14.5499C12.2151 14.3794 13.0213 14.2022 13.6709 14.1558C15.8218 14.002 15.8257 14.0048 21.9684 20.114C25.2105 23.3386 27.485 25.4733 27.5717 25.3733C27.652 25.2808 28.1007 24.7465 28.5691 24.1862C30.2969 22.1189 33.4927 19.9808 36.2541 19.0446C40.1626 17.7194 44.8669 17.8327 48.663 19.3435C49.4297 19.6485 50.5091 20.1657 51.0615 20.4927L52.0662 21.0872V12.1343V3.18151L51.5857 2.23468C51.0467 1.17228 50.085 0.395859 48.9957 0.143396C48.1495 -0.0526736 3.82424 -0.0453406 2.99171 0.151078ZM43.8002 6.51224C46.9064 7.95736 46.6548 12.7014 43.4153 13.7698C42.3777 14.112 40.6995 13.9245 39.8659 13.3731C37.9031 12.0752 37.5313 9.18807 39.1027 7.44649C40.3518 6.06196 42.0897 5.71644 43.8002 6.51224ZM40.2604 22.1492C37.1814 22.5758 34.3256 23.9895 32.1482 26.1653C30.4026 27.9096 29.0919 30.1863 28.454 32.5818C27.6934 35.4372 28.0541 39.2474 29.3459 42.0062C31.0788 45.7069 34.5471 48.581 38.6128 49.6854C40.1836 50.1121 44.0134 50.103 45.5914 49.6689C50.4907 48.3212 54.32 44.4947 55.6687 39.5989C56.1031 38.0219 56.1121 34.1948 55.6851 32.6252C54.58 28.5624 51.7038 25.0966 48.0005 23.3649C45.8027 22.3373 42.5695 21.8294 40.2604 22.1492ZM42.9866 28.3506C43.8539 28.7988 44.0291 29.3837 44.0291 31.8308V34.022L45.9947 34.023C47.0759 34.0236 48.2515 34.1047 48.6076 34.2036C49.4968 34.4503 49.9696 35.0985 49.9696 36.0709C49.9696 36.7247 49.8736 36.9463 49.3755 37.444L48.7815 38.0377H46.4053H44.0291V40.4121V42.7866L43.4351 43.3802C42.937 43.878 42.7152 43.9739 42.0609 43.9739C41.0879 43.9739 40.4392 43.5014 40.1923 42.6129C40.0934 42.2571 40.0122 41.0822 40.0116 40.0018L40.0106 38.0377H37.8179C35.369 38.0377 34.7837 37.8625 34.3352 36.9958C33.8998 36.1545 33.9985 35.4917 34.668 34.7614L35.2659 34.1093L37.6215 34.0489L39.977 33.9885L40.0408 31.6919C40.1088 29.2461 40.2168 28.8884 41.0421 28.3765C41.6159 28.0205 42.3295 28.0111 42.9866 28.3506Z" fill="#DFDFE2"/>
  </symbol>
</svg>
